<?xml version="1.0" encoding="utf-8" ?>
<svg xmlns="http://www.w3.org/2000/svg" xmlns:xlink="http://www.w3.org/1999/xlink" width="350" height="350">
	<path fill="#0F5C43" transform="scale(0.342031 0.342031)" d="M877.605 453.507C879.195 469.236 878.642 485.502 877.611 501.25C872.557 578.421 843.662 650.445 794.89 710.322C782.575 725.442 768.591 739.197 753.829 751.902C703.386 795.32 640.418 825.851 574.878 837.735L574.033 835.407L573.848 834.75L573.25 834.346L573.25 833.329C572.362 832.332 573.168 831.908 572.497 830.698C571.739 829.33 571.835 828.05 571.767 826.51L571.25 826.142L571.08 824.75L570.813 823.25C570.765 822.269 571.005 821.803 570.584 820.859C570.21 820.019 570.3 820.488 570.239 819.531L570.203 818.75C570.043 817.625 570.013 815.691 569.629 814.719C569.331 813.964 569.46 814.543 569.324 813.679L569.223 813C568.557 809.811 568.865 807.384 567.409 804.326C575.593 802.219 583.878 800.624 592.036 798.369C617.662 791.282 641.768 781.504 665.397 769.317C744.975 728.274 805.71 654.099 830.232 568.072C833.855 555.362 836.552 542.298 838.411 529.214C839.16 523.949 839.951 518.668 840.581 513.387C841.029 509.622 841.214 505.785 842.426 502.169L842.631 501.598L843.517 500.502C845.486 497.769 848.097 495.488 850.395 493.016C853.406 489.777 856.262 486.103 858.828 482.5C862.266 477.673 865.626 472.668 868.535 467.502C870.717 463.63 872.548 459.117 875.078 455.502C875.72 454.585 876.672 454.08 877.605 453.507Z"/>
	<path fill="#54B663" transform="scale(0.342031 0.342031)" d="M144.617 446.624C145.493 447.933 145.8 448.796 146.365 450.25C153.157 467.735 163.839 485.119 176.366 499C178.034 500.848 179.871 503.491 182.175 504.5L182.619 504.646C189.057 589.96 234.115 671.012 298.453 726.368C336.846 759.402 382.435 782.856 431.25 796.025C443.109 799.224 455.11 802.211 467.266 804.047L457.759 839.762C437.711 837.189 417.812 831.898 398.69 825.425C335.251 803.951 278.936 765.58 234.707 715.425C180.303 653.733 147.511 574.726 143.641 492.399C142.917 477.014 143.661 461.969 144.617 446.624Z"/>
	<path fill="#0F4A60" transform="scale(0.342031 0.342031)" d="M576.077 342.332C571.959 347.941 567.235 353.036 563.336 358.823C538.733 395.343 522.881 439.762 529.663 484.145C531.182 494.084 534.255 506.904 542.992 513.07C545.594 514.907 549.816 516.1 553 515.518C560.255 514.191 567.253 507.972 573.13 503.76C578.672 499.789 584.312 495.883 590.041 492.188C598.941 486.449 608.153 480.947 617.45 475.875C643.817 461.493 672.267 449.759 701.78 443.804C709.411 442.265 717.098 441.81 724.75 440.543L724.926 440.855C708.648 445.433 692.912 451.085 677.774 458.65C650.13 472.463 624.618 491.689 602.451 513.139C586.601 528.475 571.954 545.384 561.105 564.68C557.173 571.672 554.5 578.464 553.092 586.395C550.274 602.262 550.422 618.293 550.448 634.343C550.521 680.216 554.517 726.016 561.369 771.361C562.944 781.787 564.071 792.983 566.887 803.128C567.117 803.956 567 803.674 567.409 804.326C568.865 807.384 568.557 809.811 569.223 813L569.324 813.679C569.46 814.543 569.331 813.964 569.629 814.719C570.013 815.691 570.043 817.625 570.203 818.75L570.239 819.531C570.3 820.488 570.21 820.019 570.584 820.859C571.005 821.803 570.765 822.269 570.813 823.25L571.08 824.75L571.25 826.142L571.767 826.51C571.835 828.05 571.739 829.33 572.497 830.698C573.168 831.908 572.362 832.332 573.25 833.329L573.25 834.346L573.848 834.75L574.033 835.407L574.878 837.735L584.017 864.952C629.997 870.488 672.912 884.299 714.573 904.352C724.737 909.244 734.904 913.987 744.603 919.773C722.867 912.783 699.832 908.265 677.481 903.628C562.041 879.678 443.614 882.723 328.433 906.301C312.097 909.645 295.864 914.089 279.656 918.039C286.159 914.161 293.393 911.038 300.175 907.637C346.832 884.236 397.5 868.43 449.613 863.945L457.759 839.762L467.266 804.047C471.685 782.629 474.78 760.94 477.515 739.25C482.065 703.164 484.922 666.729 484.105 630.337C483.769 615.382 483.321 599.808 479.671 585.223C477.424 576.244 473.274 568.215 468.239 560.503C439.516 516.511 395.516 481.266 349 457.534C340.657 453.278 332.164 449.423 323.542 445.766C318.409 443.589 311.798 441.631 307.201 438.527C319.474 441.812 331.953 444.198 344.159 447.782C379.117 458.046 412.065 474.33 442.548 494.191C447.761 497.587 452.913 501.07 458.06 504.566C464.567 508.985 474.35 517.259 482.712 515.496C484.578 515.102 486.545 514.352 488.173 513.366C496.223 508.49 499.276 498.542 501.158 489.89C504.105 476.345 503.822 462.331 502.185 448.645C498.569 418.425 488.119 389.495 471.486 363.994L457.73 346.739C464.066 350.797 469.995 357.073 475.01 362.684C493.692 383.588 506.078 406.604 515.549 432.875C519.507 422.843 523.236 412.729 528.015 403.046C539.269 380.242 556.3 358.408 576.077 342.332Z"/>
	<path fill="#239B55" transform="scale(0.342031 0.342031)" d="M144.617 446.624C145.904 433.254 146.968 420.192 149.49 406.958C165.626 322.291 212.157 245.412 278.684 190.75C304.552 169.495 333.528 151.378 364.213 137.973C420.856 113.228 485.83 103.241 547.32 109.31C623.696 116.849 696.329 148.517 754.045 199.179C770.224 213.381 785.155 229.336 798.802 245.963C839.202 295.184 865.191 358.124 874.266 420.945C875.808 431.625 877.314 442.714 877.605 453.507C876.672 454.08 875.72 454.585 875.078 455.502C872.548 459.117 870.717 463.63 868.535 467.502C865.626 472.668 862.266 477.673 858.828 482.5C856.262 486.103 853.406 489.777 850.395 493.016C848.097 495.488 845.486 497.769 843.517 500.502L842.631 501.598C838.642 506.629 832.996 511.017 827.831 514.795C808.205 529.148 786.568 537.532 762.435 540.337C726.283 544.539 689.375 532.989 659.082 513.449C684.099 483.474 718.387 461.333 757.938 457.734C782.671 455.484 806.485 458.941 827.888 472.174C821.709 466.164 814.94 461.859 807.5 457.523C784.454 444.091 757.947 436.448 731.178 436.808L718.423 437.721C746.007 427.683 774.168 409.914 786.997 382.5C794.306 366.883 796.955 352.263 797.652 335.241C791.373 363.046 774.846 388.156 750.551 403.418C737.379 411.693 722.781 416.271 707.439 418.296C701.316 419.105 694.603 419.687 688.44 419.108C692.557 414.002 696.874 408.993 700.475 403.5C716.012 379.794 724.164 350.343 721.156 321.978L716.313 297.108C716.761 305.481 717.081 313.855 716.185 322.213C713.507 347.191 702.484 371.565 685.69 390.25C655.727 423.587 612.801 436.003 570.321 444.308C570.427 433.471 570.495 422.729 571.909 411.96C576.232 379.027 590.398 347.378 614.234 323.948C634.81 303.723 662.112 289.767 690.908 286.843C688.07 284.781 667.892 288.009 663.574 288.696C636.082 293.071 608.476 303.49 585.115 318.65C573.51 326.181 562.667 335.159 552.517 344.547C552.165 310.219 561.217 277.075 585.854 252.105C594.831 243.007 605.407 236.026 617.16 231.072C622.526 228.811 628.037 226.848 633.885 226.369L633.5 225.878C605.344 227.72 579.193 240.192 560.469 261.372C548.108 275.356 539.588 291.185 532.649 308.411L532.615 307.846C531.979 298.937 529.431 290.037 528.206 281.172C523.93 250.216 526.824 221.239 539.882 192.637C517.815 221.857 507.885 257.615 508.799 293.995C497.053 260.481 475.476 234.116 443.213 218.452C433.742 213.854 423.78 210.659 413.5 208.484L412.657 208.817C441.638 219.752 465.363 240.852 478.217 269.316C486.744 288.197 488.822 308.513 486.686 328.95C485.994 335.564 485.071 342.506 483.238 348.916C473.286 338.912 463.168 329.821 451.583 321.724C422.644 301.498 386.463 287.99 351.046 287.23C357.308 288.753 363.671 290.276 369.696 292.588C398.26 303.544 422.501 324.514 438.376 350.597C454.835 377.641 462.778 413.31 461.057 444.901C450.05 442.505 438.785 440.944 427.885 438.154C388.648 428.114 354.152 407.894 331.959 373.285C317.675 351.01 309.662 326.884 310.004 300.217C307.419 314.525 306.153 328.996 307.706 343.5C310.216 366.935 320.676 390.248 334.012 409.476L339.609 417.627C307.214 415.101 274.641 403.632 252.977 378.545C239.979 363.493 233.88 346.055 228.75 327.171C229.219 334.957 229.647 342.654 231.108 350.337C235.797 374.997 247.854 397.708 266.689 414.423C278.855 425.219 292.25 432.327 307.049 438.754C266.393 434.548 228.062 448.719 196.161 473.418C202.441 470.738 208.183 467.498 214.698 465.225C246.443 454.151 280.44 455.978 311.521 468.458C325.996 474.27 338.783 483.066 350.502 493.25C357.411 499.253 364.37 506.086 369.611 513.622C335.687 536.614 293.559 548.595 252.828 540.812C232.347 536.899 213.176 528.423 196.414 516.022C193.268 513.695 190.265 511.244 187.292 508.699C185.884 507.494 184.173 505.578 182.619 504.646L182.175 504.5C179.871 503.491 178.034 500.848 176.366 499C163.839 485.119 153.157 467.735 146.365 450.25C145.8 448.796 145.493 447.933 144.617 446.624Z"/>
</svg>
